<mxfile host="app.diagrams.net" modified="2023-04-15T17:31:57.265Z" agent="Mozilla/5.0 (Windows NT 10.0; Win64; x64) AppleWebKit/537.36 (KHTML, like Gecko) Chrome/112.0.0.0 Safari/537.36" etag="saQdwXWBlYNKwD8gNBt7" version="21.1.5" type="github">
  <diagram name="第 1 页" id="zqBdj3-9WbiuxeAx7IHs">
    <mxGraphModel dx="1838" dy="1013" grid="1" gridSize="10" guides="1" tooltips="1" connect="1" arrows="1" fold="1" page="1" pageScale="1" pageWidth="827" pageHeight="1169" math="0" shadow="0">
      <root>
        <mxCell id="0" />
        <mxCell id="1" parent="0" />
        <mxCell id="KSadktBoTB7K_ACd7i-8-107" value="" style="group" vertex="1" connectable="0" parent="1">
          <mxGeometry x="260" y="420" width="290" height="380" as="geometry" />
        </mxCell>
        <mxCell id="KSadktBoTB7K_ACd7i-8-100" value="" style="group" vertex="1" connectable="0" parent="KSadktBoTB7K_ACd7i-8-107">
          <mxGeometry x="165.7142857142857" width="124.28571428571426" height="380" as="geometry" />
        </mxCell>
        <mxCell id="KSadktBoTB7K_ACd7i-8-99" value="" style="rounded=0;whiteSpace=wrap;html=1;hachureGap=4;fontFamily=Architects Daughter;fontSource=https%3A%2F%2Ffonts.googleapis.com%2Fcss%3Ffamily%3DArchitects%2BDaughter;fontSize=20;movable=1;resizable=1;rotatable=1;deletable=1;editable=1;locked=0;connectable=1;" vertex="1" parent="KSadktBoTB7K_ACd7i-8-100">
          <mxGeometry width="124.28571428571426" height="380" as="geometry" />
        </mxCell>
        <mxCell id="KSadktBoTB7K_ACd7i-8-3" value="" style="strokeWidth=2;html=1;shape=mxgraph.flowchart.start_2;whiteSpace=wrap;hachureGap=4;fontFamily=Architects Daughter;fontSource=https%3A%2F%2Ffonts.googleapis.com%2Fcss%3Ffamily%3DArchitects%2BDaughter;fontSize=20;rotation=75;direction=south;" vertex="1" parent="KSadktBoTB7K_ACd7i-8-100">
          <mxGeometry x="29.591836734693878" y="32.75862068965517" width="11.836734693877553" height="13.103448275862071" as="geometry" />
        </mxCell>
        <mxCell id="KSadktBoTB7K_ACd7i-8-21" style="edgeStyle=none;rounded=0;hachureGap=4;orthogonalLoop=1;jettySize=auto;html=1;exitX=0.145;exitY=0.855;exitDx=0;exitDy=0;exitPerimeter=0;entryX=0.145;entryY=0.855;entryDx=0;entryDy=0;entryPerimeter=0;fontFamily=Architects Daughter;fontSource=https%3A%2F%2Ffonts.googleapis.com%2Fcss%3Ffamily%3DArchitects%2BDaughter;fontSize=16;" edge="1" parent="KSadktBoTB7K_ACd7i-8-100" source="KSadktBoTB7K_ACd7i-8-9" target="KSadktBoTB7K_ACd7i-8-3">
          <mxGeometry relative="1" as="geometry" />
        </mxCell>
        <mxCell id="KSadktBoTB7K_ACd7i-8-9" value="" style="strokeWidth=2;html=1;shape=mxgraph.flowchart.start_2;whiteSpace=wrap;hachureGap=4;fontFamily=Architects Daughter;fontSource=https%3A%2F%2Ffonts.googleapis.com%2Fcss%3Ffamily%3DArchitects%2BDaughter;fontSize=20;" vertex="1" parent="KSadktBoTB7K_ACd7i-8-100">
          <mxGeometry x="53.265306122448976" y="6.551724137931036" width="11.836734693877553" height="13.103448275862071" as="geometry" />
        </mxCell>
        <mxCell id="KSadktBoTB7K_ACd7i-8-33" value="" style="strokeWidth=2;html=1;shape=mxgraph.flowchart.start_2;whiteSpace=wrap;hachureGap=4;fontFamily=Architects Daughter;fontSource=https%3A%2F%2Ffonts.googleapis.com%2Fcss%3Ffamily%3DArchitects%2BDaughter;fontSize=20;rotation=75;direction=south;" vertex="1" parent="KSadktBoTB7K_ACd7i-8-100">
          <mxGeometry x="17.755102040816325" y="58.9655172413793" width="11.836734693877553" height="13.103448275862071" as="geometry" />
        </mxCell>
        <mxCell id="KSadktBoTB7K_ACd7i-8-44" style="edgeStyle=none;rounded=0;hachureGap=4;orthogonalLoop=1;jettySize=auto;html=1;exitX=0.855;exitY=0.145;exitDx=0;exitDy=0;exitPerimeter=0;entryX=0.167;entryY=1.02;entryDx=0;entryDy=0;entryPerimeter=0;fontFamily=Architects Daughter;fontSource=https%3A%2F%2Ffonts.googleapis.com%2Fcss%3Ffamily%3DArchitects%2BDaughter;fontSize=16;" edge="1" parent="KSadktBoTB7K_ACd7i-8-100" source="KSadktBoTB7K_ACd7i-8-3" target="KSadktBoTB7K_ACd7i-8-33">
          <mxGeometry relative="1" as="geometry" />
        </mxCell>
        <mxCell id="KSadktBoTB7K_ACd7i-8-34" value="" style="strokeWidth=2;html=1;shape=mxgraph.flowchart.start_2;whiteSpace=wrap;hachureGap=4;fontFamily=Architects Daughter;fontSource=https%3A%2F%2Ffonts.googleapis.com%2Fcss%3Ffamily%3DArchitects%2BDaughter;fontSize=20;" vertex="1" parent="KSadktBoTB7K_ACd7i-8-100">
          <mxGeometry x="47.34693877551021" y="58.9655172413793" width="11.836734693877553" height="13.103448275862071" as="geometry" />
        </mxCell>
        <mxCell id="KSadktBoTB7K_ACd7i-8-35" style="edgeStyle=none;rounded=0;hachureGap=4;orthogonalLoop=1;jettySize=auto;html=1;exitX=0.855;exitY=0.855;exitDx=0;exitDy=0;exitPerimeter=0;entryX=0.145;entryY=0.145;entryDx=0;entryDy=0;entryPerimeter=0;fontFamily=Architects Daughter;fontSource=https%3A%2F%2Ffonts.googleapis.com%2Fcss%3Ffamily%3DArchitects%2BDaughter;fontSize=16;" edge="1" parent="KSadktBoTB7K_ACd7i-8-100" target="KSadktBoTB7K_ACd7i-8-34">
          <mxGeometry relative="1" as="geometry">
            <mxPoint x="39.712244897959266" y="43.96206896551726" as="sourcePoint" />
          </mxGeometry>
        </mxCell>
        <mxCell id="KSadktBoTB7K_ACd7i-8-38" value="" style="strokeWidth=2;html=1;shape=mxgraph.flowchart.start_2;whiteSpace=wrap;hachureGap=4;fontFamily=Architects Daughter;fontSource=https%3A%2F%2Ffonts.googleapis.com%2Fcss%3Ffamily%3DArchitects%2BDaughter;fontSize=20;rotation=75;direction=south;" vertex="1" parent="KSadktBoTB7K_ACd7i-8-100">
          <mxGeometry x="65.10204081632652" y="58.9655172413793" width="11.836734693877553" height="13.103448275862071" as="geometry" />
        </mxCell>
        <mxCell id="KSadktBoTB7K_ACd7i-8-39" value="" style="strokeWidth=2;html=1;shape=mxgraph.flowchart.start_2;whiteSpace=wrap;hachureGap=4;fontFamily=Architects Daughter;fontSource=https%3A%2F%2Ffonts.googleapis.com%2Fcss%3Ffamily%3DArchitects%2BDaughter;fontSize=20;" vertex="1" parent="KSadktBoTB7K_ACd7i-8-100">
          <mxGeometry x="94.69387755102042" y="58.9655172413793" width="11.836734693877553" height="13.103448275862071" as="geometry" />
        </mxCell>
        <mxCell id="KSadktBoTB7K_ACd7i-8-40" style="edgeStyle=none;rounded=0;hachureGap=4;orthogonalLoop=1;jettySize=auto;html=1;exitX=0.855;exitY=0.855;exitDx=0;exitDy=0;exitPerimeter=0;entryX=0.145;entryY=0.145;entryDx=0;entryDy=0;entryPerimeter=0;fontFamily=Architects Daughter;fontSource=https%3A%2F%2Ffonts.googleapis.com%2Fcss%3Ffamily%3DArchitects%2BDaughter;fontSize=16;" edge="1" parent="KSadktBoTB7K_ACd7i-8-100" source="KSadktBoTB7K_ACd7i-8-42" target="KSadktBoTB7K_ACd7i-8-39">
          <mxGeometry relative="1" as="geometry" />
        </mxCell>
        <mxCell id="KSadktBoTB7K_ACd7i-8-41" style="edgeStyle=none;rounded=0;hachureGap=4;orthogonalLoop=1;jettySize=auto;html=1;exitX=0.145;exitY=0.855;exitDx=0;exitDy=0;exitPerimeter=0;entryX=0.145;entryY=0.855;entryDx=0;entryDy=0;entryPerimeter=0;fontFamily=Architects Daughter;fontSource=https%3A%2F%2Ffonts.googleapis.com%2Fcss%3Ffamily%3DArchitects%2BDaughter;fontSize=16;" edge="1" parent="KSadktBoTB7K_ACd7i-8-100" source="KSadktBoTB7K_ACd7i-8-42" target="KSadktBoTB7K_ACd7i-8-38">
          <mxGeometry relative="1" as="geometry" />
        </mxCell>
        <mxCell id="KSadktBoTB7K_ACd7i-8-42" value="" style="strokeWidth=2;html=1;shape=mxgraph.flowchart.start_2;whiteSpace=wrap;hachureGap=4;fontFamily=Architects Daughter;fontSource=https%3A%2F%2Ffonts.googleapis.com%2Fcss%3Ffamily%3DArchitects%2BDaughter;fontSize=20;" vertex="1" parent="KSadktBoTB7K_ACd7i-8-100">
          <mxGeometry x="76.93877551020408" y="32.75862068965517" width="11.836734693877553" height="13.103448275862071" as="geometry" />
        </mxCell>
        <mxCell id="KSadktBoTB7K_ACd7i-8-43" style="edgeStyle=none;rounded=0;hachureGap=4;orthogonalLoop=1;jettySize=auto;html=1;exitX=0.855;exitY=0.855;exitDx=0;exitDy=0;exitPerimeter=0;entryX=0.238;entryY=0.107;entryDx=0;entryDy=0;entryPerimeter=0;fontFamily=Architects Daughter;fontSource=https%3A%2F%2Ffonts.googleapis.com%2Fcss%3Ffamily%3DArchitects%2BDaughter;fontSize=16;" edge="1" parent="KSadktBoTB7K_ACd7i-8-100" source="KSadktBoTB7K_ACd7i-8-9" target="KSadktBoTB7K_ACd7i-8-42">
          <mxGeometry relative="1" as="geometry" />
        </mxCell>
        <mxCell id="KSadktBoTB7K_ACd7i-8-46" value="" style="strokeWidth=2;html=1;shape=mxgraph.flowchart.start_2;whiteSpace=wrap;hachureGap=4;fontFamily=Architects Daughter;fontSource=https%3A%2F%2Ffonts.googleapis.com%2Fcss%3Ffamily%3DArchitects%2BDaughter;fontSize=20;rotation=75;direction=south;" vertex="1" parent="KSadktBoTB7K_ACd7i-8-100">
          <mxGeometry x="65.10204081632652" y="58.9655172413793" width="11.836734693877553" height="13.103448275862071" as="geometry" />
        </mxCell>
        <mxCell id="KSadktBoTB7K_ACd7i-8-50" value="" style="strokeWidth=2;html=1;shape=mxgraph.flowchart.start_2;whiteSpace=wrap;hachureGap=4;fontFamily=Architects Daughter;fontSource=https%3A%2F%2Ffonts.googleapis.com%2Fcss%3Ffamily%3DArchitects%2BDaughter;fontSize=20;rotation=75;direction=south;" vertex="1" parent="KSadktBoTB7K_ACd7i-8-100">
          <mxGeometry x="53.265306122448976" y="85.17241379310344" width="11.836734693877553" height="13.103448275862071" as="geometry" />
        </mxCell>
        <mxCell id="KSadktBoTB7K_ACd7i-8-45" style="edgeStyle=none;rounded=0;hachureGap=4;orthogonalLoop=1;jettySize=auto;html=1;exitX=0.855;exitY=0.145;exitDx=0;exitDy=0;exitPerimeter=0;entryX=0.167;entryY=1.02;entryDx=0;entryDy=0;entryPerimeter=0;fontFamily=Architects Daughter;fontSource=https%3A%2F%2Ffonts.googleapis.com%2Fcss%3Ffamily%3DArchitects%2BDaughter;fontSize=16;" edge="1" parent="KSadktBoTB7K_ACd7i-8-100" source="KSadktBoTB7K_ACd7i-8-46" target="KSadktBoTB7K_ACd7i-8-50">
          <mxGeometry relative="1" as="geometry" />
        </mxCell>
        <mxCell id="KSadktBoTB7K_ACd7i-8-51" value="" style="strokeWidth=2;html=1;shape=mxgraph.flowchart.start_2;whiteSpace=wrap;hachureGap=4;fontFamily=Architects Daughter;fontSource=https%3A%2F%2Ffonts.googleapis.com%2Fcss%3Ffamily%3DArchitects%2BDaughter;fontSize=20;" vertex="1" parent="KSadktBoTB7K_ACd7i-8-100">
          <mxGeometry x="76.93877551020408" y="85.17241379310344" width="11.836734693877553" height="13.103448275862071" as="geometry" />
        </mxCell>
        <mxCell id="KSadktBoTB7K_ACd7i-8-52" style="edgeStyle=none;rounded=0;hachureGap=4;orthogonalLoop=1;jettySize=auto;html=1;exitX=0.855;exitY=0.855;exitDx=0;exitDy=0;exitPerimeter=0;entryX=0.145;entryY=0.145;entryDx=0;entryDy=0;entryPerimeter=0;fontFamily=Architects Daughter;fontSource=https%3A%2F%2Ffonts.googleapis.com%2Fcss%3Ffamily%3DArchitects%2BDaughter;fontSize=16;" edge="1" parent="KSadktBoTB7K_ACd7i-8-100" target="KSadktBoTB7K_ACd7i-8-51">
          <mxGeometry relative="1" as="geometry">
            <mxPoint x="75.22244897959192" y="70.16896551724139" as="sourcePoint" />
          </mxGeometry>
        </mxCell>
        <mxCell id="KSadktBoTB7K_ACd7i-8-62" value="" style="strokeWidth=2;html=1;shape=mxgraph.flowchart.start_2;whiteSpace=wrap;hachureGap=4;fontFamily=Architects Daughter;fontSource=https%3A%2F%2Ffonts.googleapis.com%2Fcss%3Ffamily%3DArchitects%2BDaughter;fontSize=20;rotation=75;direction=south;" vertex="1" parent="KSadktBoTB7K_ACd7i-8-100">
          <mxGeometry x="29.591836734693878" y="150.68965517241378" width="11.836734693877553" height="13.103448275862071" as="geometry" />
        </mxCell>
        <mxCell id="KSadktBoTB7K_ACd7i-8-63" style="edgeStyle=none;rounded=0;hachureGap=4;orthogonalLoop=1;jettySize=auto;html=1;exitX=0.145;exitY=0.855;exitDx=0;exitDy=0;exitPerimeter=0;entryX=0.145;entryY=0.855;entryDx=0;entryDy=0;entryPerimeter=0;fontFamily=Architects Daughter;fontSource=https%3A%2F%2Ffonts.googleapis.com%2Fcss%3Ffamily%3DArchitects%2BDaughter;fontSize=16;" edge="1" parent="KSadktBoTB7K_ACd7i-8-100" source="KSadktBoTB7K_ACd7i-8-65" target="KSadktBoTB7K_ACd7i-8-62">
          <mxGeometry relative="1" as="geometry" />
        </mxCell>
        <mxCell id="KSadktBoTB7K_ACd7i-8-65" value="" style="strokeWidth=2;html=1;shape=mxgraph.flowchart.start_2;whiteSpace=wrap;hachureGap=4;fontFamily=Architects Daughter;fontSource=https%3A%2F%2Ffonts.googleapis.com%2Fcss%3Ffamily%3DArchitects%2BDaughter;fontSize=20;" vertex="1" parent="KSadktBoTB7K_ACd7i-8-100">
          <mxGeometry x="53.265306122448976" y="124.48275862068965" width="11.836734693877553" height="13.103448275862071" as="geometry" />
        </mxCell>
        <mxCell id="KSadktBoTB7K_ACd7i-8-66" value="" style="strokeWidth=2;html=1;shape=mxgraph.flowchart.start_2;whiteSpace=wrap;hachureGap=4;fontFamily=Architects Daughter;fontSource=https%3A%2F%2Ffonts.googleapis.com%2Fcss%3Ffamily%3DArchitects%2BDaughter;fontSize=20;rotation=75;direction=south;" vertex="1" parent="KSadktBoTB7K_ACd7i-8-100">
          <mxGeometry x="17.755102040816325" y="176.8965517241379" width="11.836734693877553" height="13.103448275862071" as="geometry" />
        </mxCell>
        <mxCell id="KSadktBoTB7K_ACd7i-8-61" style="edgeStyle=none;rounded=0;hachureGap=4;orthogonalLoop=1;jettySize=auto;html=1;exitX=0.855;exitY=0.145;exitDx=0;exitDy=0;exitPerimeter=0;entryX=0.167;entryY=1.02;entryDx=0;entryDy=0;entryPerimeter=0;fontFamily=Architects Daughter;fontSource=https%3A%2F%2Ffonts.googleapis.com%2Fcss%3Ffamily%3DArchitects%2BDaughter;fontSize=16;" edge="1" parent="KSadktBoTB7K_ACd7i-8-100" source="KSadktBoTB7K_ACd7i-8-62" target="KSadktBoTB7K_ACd7i-8-66">
          <mxGeometry relative="1" as="geometry" />
        </mxCell>
        <mxCell id="KSadktBoTB7K_ACd7i-8-67" value="" style="strokeWidth=2;html=1;shape=mxgraph.flowchart.start_2;whiteSpace=wrap;hachureGap=4;fontFamily=Architects Daughter;fontSource=https%3A%2F%2Ffonts.googleapis.com%2Fcss%3Ffamily%3DArchitects%2BDaughter;fontSize=20;" vertex="1" parent="KSadktBoTB7K_ACd7i-8-100">
          <mxGeometry x="47.34693877551021" y="176.8965517241379" width="11.836734693877553" height="13.103448275862071" as="geometry" />
        </mxCell>
        <mxCell id="KSadktBoTB7K_ACd7i-8-68" style="edgeStyle=none;rounded=0;hachureGap=4;orthogonalLoop=1;jettySize=auto;html=1;exitX=0.855;exitY=0.855;exitDx=0;exitDy=0;exitPerimeter=0;entryX=0.145;entryY=0.145;entryDx=0;entryDy=0;entryPerimeter=0;fontFamily=Architects Daughter;fontSource=https%3A%2F%2Ffonts.googleapis.com%2Fcss%3Ffamily%3DArchitects%2BDaughter;fontSize=16;" edge="1" parent="KSadktBoTB7K_ACd7i-8-100" target="KSadktBoTB7K_ACd7i-8-67">
          <mxGeometry relative="1" as="geometry">
            <mxPoint x="39.712244897959266" y="161.89310344827587" as="sourcePoint" />
          </mxGeometry>
        </mxCell>
        <mxCell id="KSadktBoTB7K_ACd7i-8-69" value="" style="strokeWidth=2;html=1;shape=mxgraph.flowchart.start_2;whiteSpace=wrap;hachureGap=4;fontFamily=Architects Daughter;fontSource=https%3A%2F%2Ffonts.googleapis.com%2Fcss%3Ffamily%3DArchitects%2BDaughter;fontSize=20;rotation=75;direction=south;" vertex="1" parent="KSadktBoTB7K_ACd7i-8-100">
          <mxGeometry x="65.10204081632652" y="176.8965517241379" width="11.836734693877553" height="13.103448275862071" as="geometry" />
        </mxCell>
        <mxCell id="KSadktBoTB7K_ACd7i-8-70" value="" style="strokeWidth=2;html=1;shape=mxgraph.flowchart.start_2;whiteSpace=wrap;hachureGap=4;fontFamily=Architects Daughter;fontSource=https%3A%2F%2Ffonts.googleapis.com%2Fcss%3Ffamily%3DArchitects%2BDaughter;fontSize=20;" vertex="1" parent="KSadktBoTB7K_ACd7i-8-100">
          <mxGeometry x="94.69387755102042" y="176.8965517241379" width="11.836734693877553" height="13.103448275862071" as="geometry" />
        </mxCell>
        <mxCell id="KSadktBoTB7K_ACd7i-8-71" style="edgeStyle=none;rounded=0;hachureGap=4;orthogonalLoop=1;jettySize=auto;html=1;exitX=0.855;exitY=0.855;exitDx=0;exitDy=0;exitPerimeter=0;entryX=0.145;entryY=0.145;entryDx=0;entryDy=0;entryPerimeter=0;fontFamily=Architects Daughter;fontSource=https%3A%2F%2Ffonts.googleapis.com%2Fcss%3Ffamily%3DArchitects%2BDaughter;fontSize=16;" edge="1" parent="KSadktBoTB7K_ACd7i-8-100" source="KSadktBoTB7K_ACd7i-8-73" target="KSadktBoTB7K_ACd7i-8-70">
          <mxGeometry relative="1" as="geometry" />
        </mxCell>
        <mxCell id="KSadktBoTB7K_ACd7i-8-72" style="edgeStyle=none;rounded=0;hachureGap=4;orthogonalLoop=1;jettySize=auto;html=1;exitX=0.145;exitY=0.855;exitDx=0;exitDy=0;exitPerimeter=0;entryX=0.145;entryY=0.855;entryDx=0;entryDy=0;entryPerimeter=0;fontFamily=Architects Daughter;fontSource=https%3A%2F%2Ffonts.googleapis.com%2Fcss%3Ffamily%3DArchitects%2BDaughter;fontSize=16;" edge="1" parent="KSadktBoTB7K_ACd7i-8-100" source="KSadktBoTB7K_ACd7i-8-73" target="KSadktBoTB7K_ACd7i-8-69">
          <mxGeometry relative="1" as="geometry" />
        </mxCell>
        <mxCell id="KSadktBoTB7K_ACd7i-8-73" value="" style="strokeWidth=2;html=1;shape=mxgraph.flowchart.start_2;whiteSpace=wrap;hachureGap=4;fontFamily=Architects Daughter;fontSource=https%3A%2F%2Ffonts.googleapis.com%2Fcss%3Ffamily%3DArchitects%2BDaughter;fontSize=20;" vertex="1" parent="KSadktBoTB7K_ACd7i-8-100">
          <mxGeometry x="76.93877551020408" y="150.68965517241378" width="11.836734693877553" height="13.103448275862071" as="geometry" />
        </mxCell>
        <mxCell id="KSadktBoTB7K_ACd7i-8-64" style="edgeStyle=none;rounded=0;hachureGap=4;orthogonalLoop=1;jettySize=auto;html=1;exitX=0.855;exitY=0.855;exitDx=0;exitDy=0;exitPerimeter=0;entryX=0.238;entryY=0.107;entryDx=0;entryDy=0;entryPerimeter=0;fontFamily=Architects Daughter;fontSource=https%3A%2F%2Ffonts.googleapis.com%2Fcss%3Ffamily%3DArchitects%2BDaughter;fontSize=16;" edge="1" parent="KSadktBoTB7K_ACd7i-8-100" source="KSadktBoTB7K_ACd7i-8-65" target="KSadktBoTB7K_ACd7i-8-73">
          <mxGeometry relative="1" as="geometry" />
        </mxCell>
        <mxCell id="KSadktBoTB7K_ACd7i-8-75" value="" style="strokeWidth=2;html=1;shape=mxgraph.flowchart.start_2;whiteSpace=wrap;hachureGap=4;fontFamily=Architects Daughter;fontSource=https%3A%2F%2Ffonts.googleapis.com%2Fcss%3Ffamily%3DArchitects%2BDaughter;fontSize=20;rotation=75;direction=south;" vertex="1" parent="KSadktBoTB7K_ACd7i-8-100">
          <mxGeometry x="65.10204081632652" y="176.8965517241379" width="11.836734693877553" height="13.103448275862071" as="geometry" />
        </mxCell>
        <mxCell id="KSadktBoTB7K_ACd7i-8-76" value="" style="strokeWidth=2;html=1;shape=mxgraph.flowchart.start_2;whiteSpace=wrap;hachureGap=4;fontFamily=Architects Daughter;fontSource=https%3A%2F%2Ffonts.googleapis.com%2Fcss%3Ffamily%3DArchitects%2BDaughter;fontSize=20;rotation=75;direction=south;" vertex="1" parent="KSadktBoTB7K_ACd7i-8-100">
          <mxGeometry x="53.265306122448976" y="203.10344827586206" width="11.836734693877553" height="13.103448275862071" as="geometry" />
        </mxCell>
        <mxCell id="KSadktBoTB7K_ACd7i-8-74" style="edgeStyle=none;rounded=0;hachureGap=4;orthogonalLoop=1;jettySize=auto;html=1;exitX=0.855;exitY=0.145;exitDx=0;exitDy=0;exitPerimeter=0;entryX=0.167;entryY=1.02;entryDx=0;entryDy=0;entryPerimeter=0;fontFamily=Architects Daughter;fontSource=https%3A%2F%2Ffonts.googleapis.com%2Fcss%3Ffamily%3DArchitects%2BDaughter;fontSize=16;" edge="1" parent="KSadktBoTB7K_ACd7i-8-100" source="KSadktBoTB7K_ACd7i-8-75" target="KSadktBoTB7K_ACd7i-8-76">
          <mxGeometry relative="1" as="geometry" />
        </mxCell>
        <mxCell id="KSadktBoTB7K_ACd7i-8-77" value="" style="strokeWidth=2;html=1;shape=mxgraph.flowchart.start_2;whiteSpace=wrap;hachureGap=4;fontFamily=Architects Daughter;fontSource=https%3A%2F%2Ffonts.googleapis.com%2Fcss%3Ffamily%3DArchitects%2BDaughter;fontSize=20;" vertex="1" parent="KSadktBoTB7K_ACd7i-8-100">
          <mxGeometry x="76.93877551020408" y="203.10344827586206" width="11.836734693877553" height="13.103448275862071" as="geometry" />
        </mxCell>
        <mxCell id="KSadktBoTB7K_ACd7i-8-78" style="edgeStyle=none;rounded=0;hachureGap=4;orthogonalLoop=1;jettySize=auto;html=1;exitX=0.855;exitY=0.855;exitDx=0;exitDy=0;exitPerimeter=0;entryX=0.145;entryY=0.145;entryDx=0;entryDy=0;entryPerimeter=0;fontFamily=Architects Daughter;fontSource=https%3A%2F%2Ffonts.googleapis.com%2Fcss%3Ffamily%3DArchitects%2BDaughter;fontSize=16;" edge="1" parent="KSadktBoTB7K_ACd7i-8-100" target="KSadktBoTB7K_ACd7i-8-77">
          <mxGeometry relative="1" as="geometry">
            <mxPoint x="75.22244897959192" y="188.1" as="sourcePoint" />
          </mxGeometry>
        </mxCell>
        <mxCell id="KSadktBoTB7K_ACd7i-8-80" value="&lt;b&gt;&lt;font style=&quot;font-size: 72px;&quot;&gt;...&lt;/font&gt;&lt;/b&gt;" style="text;strokeColor=none;align=center;fillColor=none;html=1;verticalAlign=middle;whiteSpace=wrap;rounded=0;fontSize=20;fontFamily=Architects Daughter;" vertex="1" parent="KSadktBoTB7K_ACd7i-8-100">
          <mxGeometry x="40" y="230" width="54.69" height="22.24" as="geometry" />
        </mxCell>
        <mxCell id="KSadktBoTB7K_ACd7i-8-82" value="" style="strokeWidth=2;html=1;shape=mxgraph.flowchart.start_2;whiteSpace=wrap;hachureGap=4;fontFamily=Architects Daughter;fontSource=https%3A%2F%2Ffonts.googleapis.com%2Fcss%3Ffamily%3DArchitects%2BDaughter;fontSize=20;rotation=75;direction=south;" vertex="1" parent="KSadktBoTB7K_ACd7i-8-100">
          <mxGeometry x="35.51020408163265" y="301.37931034482756" width="11.836734693877553" height="13.103448275862071" as="geometry" />
        </mxCell>
        <mxCell id="KSadktBoTB7K_ACd7i-8-83" style="edgeStyle=none;rounded=0;hachureGap=4;orthogonalLoop=1;jettySize=auto;html=1;exitX=0.145;exitY=0.855;exitDx=0;exitDy=0;exitPerimeter=0;entryX=0.145;entryY=0.855;entryDx=0;entryDy=0;entryPerimeter=0;fontFamily=Architects Daughter;fontSource=https%3A%2F%2Ffonts.googleapis.com%2Fcss%3Ffamily%3DArchitects%2BDaughter;fontSize=16;" edge="1" parent="KSadktBoTB7K_ACd7i-8-100" source="KSadktBoTB7K_ACd7i-8-85" target="KSadktBoTB7K_ACd7i-8-82">
          <mxGeometry relative="1" as="geometry" />
        </mxCell>
        <mxCell id="KSadktBoTB7K_ACd7i-8-85" value="" style="strokeWidth=2;html=1;shape=mxgraph.flowchart.start_2;whiteSpace=wrap;hachureGap=4;fontFamily=Architects Daughter;fontSource=https%3A%2F%2Ffonts.googleapis.com%2Fcss%3Ffamily%3DArchitects%2BDaughter;fontSize=20;" vertex="1" parent="KSadktBoTB7K_ACd7i-8-100">
          <mxGeometry x="59.183673469387756" y="275.1724137931035" width="11.836734693877553" height="13.103448275862071" as="geometry" />
        </mxCell>
        <mxCell id="KSadktBoTB7K_ACd7i-8-86" value="" style="strokeWidth=2;html=1;shape=mxgraph.flowchart.start_2;whiteSpace=wrap;hachureGap=4;fontFamily=Architects Daughter;fontSource=https%3A%2F%2Ffonts.googleapis.com%2Fcss%3Ffamily%3DArchitects%2BDaughter;fontSize=20;rotation=75;direction=south;" vertex="1" parent="KSadktBoTB7K_ACd7i-8-100">
          <mxGeometry x="23.673469387755105" y="327.5862068965517" width="11.836734693877553" height="13.103448275862071" as="geometry" />
        </mxCell>
        <mxCell id="KSadktBoTB7K_ACd7i-8-81" style="edgeStyle=none;rounded=0;hachureGap=4;orthogonalLoop=1;jettySize=auto;html=1;exitX=0.855;exitY=0.145;exitDx=0;exitDy=0;exitPerimeter=0;entryX=0.167;entryY=1.02;entryDx=0;entryDy=0;entryPerimeter=0;fontFamily=Architects Daughter;fontSource=https%3A%2F%2Ffonts.googleapis.com%2Fcss%3Ffamily%3DArchitects%2BDaughter;fontSize=16;" edge="1" parent="KSadktBoTB7K_ACd7i-8-100" source="KSadktBoTB7K_ACd7i-8-82" target="KSadktBoTB7K_ACd7i-8-86">
          <mxGeometry relative="1" as="geometry" />
        </mxCell>
        <mxCell id="KSadktBoTB7K_ACd7i-8-87" value="" style="strokeWidth=2;html=1;shape=mxgraph.flowchart.start_2;whiteSpace=wrap;hachureGap=4;fontFamily=Architects Daughter;fontSource=https%3A%2F%2Ffonts.googleapis.com%2Fcss%3Ffamily%3DArchitects%2BDaughter;fontSize=20;" vertex="1" parent="KSadktBoTB7K_ACd7i-8-100">
          <mxGeometry x="53.265306122448976" y="327.5862068965517" width="11.836734693877553" height="13.103448275862071" as="geometry" />
        </mxCell>
        <mxCell id="KSadktBoTB7K_ACd7i-8-88" style="edgeStyle=none;rounded=0;hachureGap=4;orthogonalLoop=1;jettySize=auto;html=1;exitX=0.855;exitY=0.855;exitDx=0;exitDy=0;exitPerimeter=0;entryX=0.145;entryY=0.145;entryDx=0;entryDy=0;entryPerimeter=0;fontFamily=Architects Daughter;fontSource=https%3A%2F%2Ffonts.googleapis.com%2Fcss%3Ffamily%3DArchitects%2BDaughter;fontSize=16;" edge="1" parent="KSadktBoTB7K_ACd7i-8-100" target="KSadktBoTB7K_ACd7i-8-87">
          <mxGeometry relative="1" as="geometry">
            <mxPoint x="45.63061224489803" y="312.5827586206897" as="sourcePoint" />
          </mxGeometry>
        </mxCell>
        <mxCell id="KSadktBoTB7K_ACd7i-8-89" value="" style="strokeWidth=2;html=1;shape=mxgraph.flowchart.start_2;whiteSpace=wrap;hachureGap=4;fontFamily=Architects Daughter;fontSource=https%3A%2F%2Ffonts.googleapis.com%2Fcss%3Ffamily%3DArchitects%2BDaughter;fontSize=20;rotation=75;direction=south;" vertex="1" parent="KSadktBoTB7K_ACd7i-8-100">
          <mxGeometry x="71.0204081632653" y="327.5862068965517" width="11.836734693877553" height="13.103448275862071" as="geometry" />
        </mxCell>
        <mxCell id="KSadktBoTB7K_ACd7i-8-90" value="" style="strokeWidth=2;html=1;shape=mxgraph.flowchart.start_2;whiteSpace=wrap;hachureGap=4;fontFamily=Architects Daughter;fontSource=https%3A%2F%2Ffonts.googleapis.com%2Fcss%3Ffamily%3DArchitects%2BDaughter;fontSize=20;" vertex="1" parent="KSadktBoTB7K_ACd7i-8-100">
          <mxGeometry x="100.6122448979592" y="327.5862068965517" width="11.836734693877553" height="13.103448275862071" as="geometry" />
        </mxCell>
        <mxCell id="KSadktBoTB7K_ACd7i-8-91" style="edgeStyle=none;rounded=0;hachureGap=4;orthogonalLoop=1;jettySize=auto;html=1;exitX=0.855;exitY=0.855;exitDx=0;exitDy=0;exitPerimeter=0;entryX=0.145;entryY=0.145;entryDx=0;entryDy=0;entryPerimeter=0;fontFamily=Architects Daughter;fontSource=https%3A%2F%2Ffonts.googleapis.com%2Fcss%3Ffamily%3DArchitects%2BDaughter;fontSize=16;" edge="1" parent="KSadktBoTB7K_ACd7i-8-100" source="KSadktBoTB7K_ACd7i-8-93" target="KSadktBoTB7K_ACd7i-8-90">
          <mxGeometry relative="1" as="geometry" />
        </mxCell>
        <mxCell id="KSadktBoTB7K_ACd7i-8-92" style="edgeStyle=none;rounded=0;hachureGap=4;orthogonalLoop=1;jettySize=auto;html=1;exitX=0.145;exitY=0.855;exitDx=0;exitDy=0;exitPerimeter=0;entryX=0.145;entryY=0.855;entryDx=0;entryDy=0;entryPerimeter=0;fontFamily=Architects Daughter;fontSource=https%3A%2F%2Ffonts.googleapis.com%2Fcss%3Ffamily%3DArchitects%2BDaughter;fontSize=16;" edge="1" parent="KSadktBoTB7K_ACd7i-8-100" source="KSadktBoTB7K_ACd7i-8-93" target="KSadktBoTB7K_ACd7i-8-89">
          <mxGeometry relative="1" as="geometry" />
        </mxCell>
        <mxCell id="KSadktBoTB7K_ACd7i-8-93" value="" style="strokeWidth=2;html=1;shape=mxgraph.flowchart.start_2;whiteSpace=wrap;hachureGap=4;fontFamily=Architects Daughter;fontSource=https%3A%2F%2Ffonts.googleapis.com%2Fcss%3Ffamily%3DArchitects%2BDaughter;fontSize=20;" vertex="1" parent="KSadktBoTB7K_ACd7i-8-100">
          <mxGeometry x="82.85714285714285" y="301.37931034482756" width="11.836734693877553" height="13.103448275862071" as="geometry" />
        </mxCell>
        <mxCell id="KSadktBoTB7K_ACd7i-8-84" style="edgeStyle=none;rounded=0;hachureGap=4;orthogonalLoop=1;jettySize=auto;html=1;exitX=0.855;exitY=0.855;exitDx=0;exitDy=0;exitPerimeter=0;entryX=0.238;entryY=0.107;entryDx=0;entryDy=0;entryPerimeter=0;fontFamily=Architects Daughter;fontSource=https%3A%2F%2Ffonts.googleapis.com%2Fcss%3Ffamily%3DArchitects%2BDaughter;fontSize=16;" edge="1" parent="KSadktBoTB7K_ACd7i-8-100" source="KSadktBoTB7K_ACd7i-8-85" target="KSadktBoTB7K_ACd7i-8-93">
          <mxGeometry relative="1" as="geometry" />
        </mxCell>
        <mxCell id="KSadktBoTB7K_ACd7i-8-95" value="" style="strokeWidth=2;html=1;shape=mxgraph.flowchart.start_2;whiteSpace=wrap;hachureGap=4;fontFamily=Architects Daughter;fontSource=https%3A%2F%2Ffonts.googleapis.com%2Fcss%3Ffamily%3DArchitects%2BDaughter;fontSize=20;rotation=75;direction=south;" vertex="1" parent="KSadktBoTB7K_ACd7i-8-100">
          <mxGeometry x="71.0204081632653" y="327.5862068965517" width="11.836734693877553" height="13.103448275862071" as="geometry" />
        </mxCell>
        <mxCell id="KSadktBoTB7K_ACd7i-8-96" value="" style="strokeWidth=2;html=1;shape=mxgraph.flowchart.start_2;whiteSpace=wrap;hachureGap=4;fontFamily=Architects Daughter;fontSource=https%3A%2F%2Ffonts.googleapis.com%2Fcss%3Ffamily%3DArchitects%2BDaughter;fontSize=20;rotation=75;direction=south;" vertex="1" parent="KSadktBoTB7K_ACd7i-8-100">
          <mxGeometry x="59.183673469387756" y="353.7931034482758" width="11.836734693877553" height="13.103448275862071" as="geometry" />
        </mxCell>
        <mxCell id="KSadktBoTB7K_ACd7i-8-94" style="edgeStyle=none;rounded=0;hachureGap=4;orthogonalLoop=1;jettySize=auto;html=1;exitX=0.855;exitY=0.145;exitDx=0;exitDy=0;exitPerimeter=0;entryX=0.167;entryY=1.02;entryDx=0;entryDy=0;entryPerimeter=0;fontFamily=Architects Daughter;fontSource=https%3A%2F%2Ffonts.googleapis.com%2Fcss%3Ffamily%3DArchitects%2BDaughter;fontSize=16;" edge="1" parent="KSadktBoTB7K_ACd7i-8-100" source="KSadktBoTB7K_ACd7i-8-95" target="KSadktBoTB7K_ACd7i-8-96">
          <mxGeometry relative="1" as="geometry" />
        </mxCell>
        <mxCell id="KSadktBoTB7K_ACd7i-8-97" value="" style="strokeWidth=2;html=1;shape=mxgraph.flowchart.start_2;whiteSpace=wrap;hachureGap=4;fontFamily=Architects Daughter;fontSource=https%3A%2F%2Ffonts.googleapis.com%2Fcss%3Ffamily%3DArchitects%2BDaughter;fontSize=20;" vertex="1" parent="KSadktBoTB7K_ACd7i-8-100">
          <mxGeometry x="82.85714285714285" y="353.7931034482758" width="11.836734693877553" height="13.103448275862071" as="geometry" />
        </mxCell>
        <mxCell id="KSadktBoTB7K_ACd7i-8-98" style="edgeStyle=none;rounded=0;hachureGap=4;orthogonalLoop=1;jettySize=auto;html=1;exitX=0.855;exitY=0.855;exitDx=0;exitDy=0;exitPerimeter=0;entryX=0.145;entryY=0.145;entryDx=0;entryDy=0;entryPerimeter=0;fontFamily=Architects Daughter;fontSource=https%3A%2F%2Ffonts.googleapis.com%2Fcss%3Ffamily%3DArchitects%2BDaughter;fontSize=16;" edge="1" parent="KSadktBoTB7K_ACd7i-8-100" target="KSadktBoTB7K_ACd7i-8-97">
          <mxGeometry relative="1" as="geometry">
            <mxPoint x="81.14081632653071" y="338.78965517241375" as="sourcePoint" />
          </mxGeometry>
        </mxCell>
        <mxCell id="KSadktBoTB7K_ACd7i-8-106" style="edgeStyle=none;rounded=0;hachureGap=4;orthogonalLoop=1;jettySize=auto;html=1;entryX=0;entryY=0.154;entryDx=0;entryDy=0;entryPerimeter=0;fontFamily=Architects Daughter;fontSource=https%3A%2F%2Ffonts.googleapis.com%2Fcss%3Ffamily%3DArchitects%2BDaughter;fontSize=16;" edge="1" parent="KSadktBoTB7K_ACd7i-8-107" source="KSadktBoTB7K_ACd7i-8-101" target="KSadktBoTB7K_ACd7i-8-99">
          <mxGeometry relative="1" as="geometry" />
        </mxCell>
        <mxCell id="KSadktBoTB7K_ACd7i-8-101" value="D1" style="rounded=0;whiteSpace=wrap;html=1;hachureGap=4;fontFamily=Architects Daughter;fontSource=https%3A%2F%2Ffonts.googleapis.com%2Fcss%3Ffamily%3DArchitects%2BDaughter;fontSize=20;" vertex="1" parent="KSadktBoTB7K_ACd7i-8-107">
          <mxGeometry y="29.230769230769226" width="51.78571428571428" height="58.46153846153845" as="geometry" />
        </mxCell>
        <mxCell id="KSadktBoTB7K_ACd7i-8-105" style="edgeStyle=none;rounded=0;hachureGap=4;orthogonalLoop=1;jettySize=auto;html=1;fontFamily=Architects Daughter;fontSource=https%3A%2F%2Ffonts.googleapis.com%2Fcss%3Ffamily%3DArchitects%2BDaughter;fontSize=16;" edge="1" parent="KSadktBoTB7K_ACd7i-8-107" source="KSadktBoTB7K_ACd7i-8-102">
          <mxGeometry relative="1" as="geometry">
            <mxPoint x="165.7142857142857" y="180.25641025641022" as="targetPoint" />
          </mxGeometry>
        </mxCell>
        <mxCell id="KSadktBoTB7K_ACd7i-8-102" value="D1" style="rounded=0;whiteSpace=wrap;html=1;hachureGap=4;fontFamily=Architects Daughter;fontSource=https%3A%2F%2Ffonts.googleapis.com%2Fcss%3Ffamily%3DArchitects%2BDaughter;fontSize=20;" vertex="1" parent="KSadktBoTB7K_ACd7i-8-107">
          <mxGeometry y="151.02564102564102" width="51.78571428571428" height="58.46153846153845" as="geometry" />
        </mxCell>
        <mxCell id="KSadktBoTB7K_ACd7i-8-104" style="edgeStyle=none;rounded=0;hachureGap=4;orthogonalLoop=1;jettySize=auto;html=1;fontFamily=Architects Daughter;fontSource=https%3A%2F%2Ffonts.googleapis.com%2Fcss%3Ffamily%3DArchitects%2BDaughter;fontSize=16;" edge="1" parent="KSadktBoTB7K_ACd7i-8-107" source="KSadktBoTB7K_ACd7i-8-103">
          <mxGeometry relative="1" as="geometry">
            <mxPoint x="165.7142857142857" y="321.5384615384615" as="targetPoint" />
          </mxGeometry>
        </mxCell>
        <mxCell id="KSadktBoTB7K_ACd7i-8-103" value="D1" style="rounded=0;whiteSpace=wrap;html=1;hachureGap=4;fontFamily=Architects Daughter;fontSource=https%3A%2F%2Ffonts.googleapis.com%2Fcss%3Ffamily%3DArchitects%2BDaughter;fontSize=20;" vertex="1" parent="KSadktBoTB7K_ACd7i-8-107">
          <mxGeometry y="292.30769230769226" width="51.78571428571428" height="58.46153846153845" as="geometry" />
        </mxCell>
        <mxCell id="KSadktBoTB7K_ACd7i-8-111" style="edgeStyle=none;rounded=0;hachureGap=4;orthogonalLoop=1;jettySize=auto;html=1;fontFamily=Architects Daughter;fontSource=https%3A%2F%2Ffonts.googleapis.com%2Fcss%3Ffamily%3DArchitects%2BDaughter;fontSize=16;" edge="1" parent="1" source="KSadktBoTB7K_ACd7i-8-109">
          <mxGeometry relative="1" as="geometry">
            <mxPoint x="261" y="600" as="targetPoint" />
            <mxPoint x="151" y="605.2884615384617" as="sourcePoint" />
          </mxGeometry>
        </mxCell>
        <mxCell id="KSadktBoTB7K_ACd7i-8-113" style="edgeStyle=none;rounded=0;hachureGap=4;orthogonalLoop=1;jettySize=auto;html=1;exitX=1;exitY=0.5;exitDx=0;exitDy=0;fontFamily=Architects Daughter;fontSource=https%3A%2F%2Ffonts.googleapis.com%2Fcss%3Ffamily%3DArchitects%2BDaughter;fontSize=16;" edge="1" parent="1" source="KSadktBoTB7K_ACd7i-8-109">
          <mxGeometry relative="1" as="geometry">
            <mxPoint x="260" y="470" as="targetPoint" />
          </mxGeometry>
        </mxCell>
        <mxCell id="KSadktBoTB7K_ACd7i-8-114" style="edgeStyle=none;rounded=0;hachureGap=4;orthogonalLoop=1;jettySize=auto;html=1;exitX=1;exitY=0.5;exitDx=0;exitDy=0;entryX=0;entryY=0.5;entryDx=0;entryDy=0;fontFamily=Architects Daughter;fontSource=https%3A%2F%2Ffonts.googleapis.com%2Fcss%3Ffamily%3DArchitects%2BDaughter;fontSize=16;" edge="1" parent="1" source="KSadktBoTB7K_ACd7i-8-109" target="KSadktBoTB7K_ACd7i-8-103">
          <mxGeometry relative="1" as="geometry" />
        </mxCell>
        <mxCell id="KSadktBoTB7K_ACd7i-8-116" style="edgeStyle=none;rounded=0;hachureGap=4;orthogonalLoop=1;jettySize=auto;html=1;entryX=0;entryY=0.5;entryDx=0;entryDy=0;fontFamily=Architects Daughter;fontSource=https%3A%2F%2Ffonts.googleapis.com%2Fcss%3Ffamily%3DArchitects%2BDaughter;fontSize=16;" edge="1" parent="1" source="KSadktBoTB7K_ACd7i-8-115" target="KSadktBoTB7K_ACd7i-8-109">
          <mxGeometry relative="1" as="geometry" />
        </mxCell>
        <mxCell id="KSadktBoTB7K_ACd7i-8-115" value="数据集D" style="rounded=0;whiteSpace=wrap;html=1;hachureGap=4;fontFamily=Architects Daughter;fontSource=https%3A%2F%2Ffonts.googleapis.com%2Fcss%3Ffamily%3DArchitects%2BDaughter;fontSize=20;" vertex="1" parent="1">
          <mxGeometry x="50" y="551.25" width="30" height="110" as="geometry" />
        </mxCell>
        <mxCell id="KSadktBoTB7K_ACd7i-8-122" style="edgeStyle=none;rounded=0;hachureGap=4;orthogonalLoop=1;jettySize=auto;html=1;exitX=1;exitY=0.5;exitDx=0;exitDy=0;entryX=0;entryY=0;entryDx=0;entryDy=0;fontFamily=Architects Daughter;fontSource=https%3A%2F%2Ffonts.googleapis.com%2Fcss%3Ffamily%3DArchitects%2BDaughter;fontSize=16;" edge="1" parent="1" source="KSadktBoTB7K_ACd7i-8-117" target="KSadktBoTB7K_ACd7i-8-121">
          <mxGeometry relative="1" as="geometry" />
        </mxCell>
        <mxCell id="KSadktBoTB7K_ACd7i-8-117" value="决策树分类结果1" style="rounded=0;whiteSpace=wrap;html=1;hachureGap=4;fontFamily=Architects Daughter;fontSource=https%3A%2F%2Ffonts.googleapis.com%2Fcss%3Ffamily%3DArchitects%2BDaughter;fontSize=20;" vertex="1" parent="1">
          <mxGeometry x="592.65" y="420" width="60" height="100" as="geometry" />
        </mxCell>
        <mxCell id="KSadktBoTB7K_ACd7i-8-123" style="edgeStyle=none;rounded=0;hachureGap=4;orthogonalLoop=1;jettySize=auto;html=1;exitX=1;exitY=0.5;exitDx=0;exitDy=0;entryX=0;entryY=0.5;entryDx=0;entryDy=0;fontFamily=Architects Daughter;fontSource=https%3A%2F%2Ffonts.googleapis.com%2Fcss%3Ffamily%3DArchitects%2BDaughter;fontSize=16;" edge="1" parent="1">
          <mxGeometry relative="1" as="geometry">
            <mxPoint x="649.9999999999995" y="595.25" as="sourcePoint" />
            <mxPoint x="729.9999999999995" y="595.2449999999997" as="targetPoint" />
          </mxGeometry>
        </mxCell>
        <mxCell id="KSadktBoTB7K_ACd7i-8-118" value="决策树分类结果2" style="rounded=0;whiteSpace=wrap;html=1;hachureGap=4;fontFamily=Architects Daughter;fontSource=https%3A%2F%2Ffonts.googleapis.com%2Fcss%3Ffamily%3DArchitects%2BDaughter;fontSize=20;" vertex="1" parent="1">
          <mxGeometry x="590" y="540" width="60" height="102.5" as="geometry" />
        </mxCell>
        <mxCell id="KSadktBoTB7K_ACd7i-8-124" style="edgeStyle=none;rounded=0;hachureGap=4;orthogonalLoop=1;jettySize=auto;html=1;entryX=0;entryY=1;entryDx=0;entryDy=0;fontFamily=Architects Daughter;fontSource=https%3A%2F%2Ffonts.googleapis.com%2Fcss%3Ffamily%3DArchitects%2BDaughter;fontSize=16;" edge="1" parent="1" source="KSadktBoTB7K_ACd7i-8-119" target="KSadktBoTB7K_ACd7i-8-121">
          <mxGeometry relative="1" as="geometry" />
        </mxCell>
        <mxCell id="KSadktBoTB7K_ACd7i-8-119" value="决策树分类结果3" style="rounded=0;whiteSpace=wrap;html=1;hachureGap=4;fontFamily=Architects Daughter;fontSource=https%3A%2F%2Ffonts.googleapis.com%2Fcss%3Ffamily%3DArchitects%2BDaughter;fontSize=20;" vertex="1" parent="1">
          <mxGeometry x="590" y="690" width="60" height="110" as="geometry" />
        </mxCell>
        <mxCell id="KSadktBoTB7K_ACd7i-8-120" value="&lt;b&gt;&lt;font style=&quot;font-size: 72px;&quot;&gt;...&lt;/font&gt;&lt;/b&gt;" style="text;strokeColor=none;align=center;fillColor=none;html=1;verticalAlign=middle;whiteSpace=wrap;rounded=0;fontSize=20;fontFamily=Architects Daughter;" vertex="1" parent="1">
          <mxGeometry x="592.6542857142856" y="639.01" width="54.69" height="22.24" as="geometry" />
        </mxCell>
        <mxCell id="KSadktBoTB7K_ACd7i-8-121" value="投票决定最优分类" style="rounded=0;whiteSpace=wrap;html=1;hachureGap=4;fontFamily=Architects Daughter;fontSource=https%3A%2F%2Ffonts.googleapis.com%2Fcss%3Ffamily%3DArchitects%2BDaughter;fontSize=20;" vertex="1" parent="1">
          <mxGeometry x="730" y="556.87" width="90" height="68.75" as="geometry" />
        </mxCell>
        <mxCell id="KSadktBoTB7K_ACd7i-8-125" value="" style="edgeStyle=none;orthogonalLoop=1;jettySize=auto;html=1;rounded=0;hachureGap=4;fontFamily=Architects Daughter;fontSource=https%3A%2F%2Ffonts.googleapis.com%2Fcss%3Ffamily%3DArchitects%2BDaughter;fontSize=16;" edge="1" parent="1">
          <mxGeometry width="100" relative="1" as="geometry">
            <mxPoint x="550" y="592.41" as="sourcePoint" />
            <mxPoint x="590" y="592.41" as="targetPoint" />
            <Array as="points" />
          </mxGeometry>
        </mxCell>
        <mxCell id="KSadktBoTB7K_ACd7i-8-126" value="" style="edgeStyle=none;orthogonalLoop=1;jettySize=auto;html=1;rounded=0;hachureGap=4;fontFamily=Architects Daughter;fontSource=https%3A%2F%2Ffonts.googleapis.com%2Fcss%3Ffamily%3DArchitects%2BDaughter;fontSize=16;" edge="1" parent="1">
          <mxGeometry width="100" relative="1" as="geometry">
            <mxPoint x="550" y="459.41" as="sourcePoint" />
            <mxPoint x="590" y="459.41" as="targetPoint" />
            <Array as="points" />
          </mxGeometry>
        </mxCell>
        <mxCell id="KSadktBoTB7K_ACd7i-8-129" value="" style="edgeStyle=none;orthogonalLoop=1;jettySize=auto;html=1;rounded=0;hachureGap=4;fontFamily=Architects Daughter;fontSource=https%3A%2F%2Ffonts.googleapis.com%2Fcss%3Ffamily%3DArchitects%2BDaughter;fontSize=16;" edge="1" parent="1">
          <mxGeometry width="100" relative="1" as="geometry">
            <mxPoint x="550" y="743.41" as="sourcePoint" />
            <mxPoint x="590" y="743.41" as="targetPoint" />
            <Array as="points" />
          </mxGeometry>
        </mxCell>
        <mxCell id="KSadktBoTB7K_ACd7i-8-130" value="" style="edgeStyle=none;rounded=0;hachureGap=4;orthogonalLoop=1;jettySize=auto;html=1;fontFamily=Architects Daughter;fontSource=https%3A%2F%2Ffonts.googleapis.com%2Fcss%3Ffamily%3DArchitects%2BDaughter;fontSize=16;" edge="1" parent="1" target="KSadktBoTB7K_ACd7i-8-109">
          <mxGeometry relative="1" as="geometry">
            <mxPoint x="261" y="600" as="targetPoint" />
            <mxPoint x="151" y="605.2884615384617" as="sourcePoint" />
          </mxGeometry>
        </mxCell>
        <mxCell id="KSadktBoTB7K_ACd7i-8-109" value="随机化" style="rounded=0;whiteSpace=wrap;html=1;hachureGap=4;fontFamily=Architects Daughter;fontSource=https%3A%2F%2Ffonts.googleapis.com%2Fcss%3Ffamily%3DArchitects%2BDaughter;fontSize=20;" vertex="1" parent="1">
          <mxGeometry x="130" y="570" width="40" height="72.5" as="geometry" />
        </mxCell>
      </root>
    </mxGraphModel>
  </diagram>
</mxfile>
